<svg width="52" height="52" viewBox="0 0 52 52" xmlns="http://www.w3.org/2000/svg" fill="transparent">
  <path d="M57 30C57 16.193 45.807 5 32 5S7 16.193 7 30s11.193 25 25 25 25-11.193 25-25z" fill="url(#prefix__paint0_linear_3507_4241)" transform="translate(-6 -4)"/>
  <path d="M51.5 26C51.5 11.917 40.083.5 26 .5S.5 11.917.5 26 11.917 51.5 26 51.5 51.5 40.083 51.5 26z" stroke="#fff"/>
  <path fill-rule="evenodd" clip-rule="evenodd" d="M37.403 19a3 3 0 00-3-3H19.496a11.496 11.496 0 00-10.89 15.18A11.506 11.506 0 0019.504 39h12.4a1 1 0 001-1v-2-2c0-.552-.446-1-.998-1H19.504a5.506 5.506 0 01-5.056-7.677A5.496 5.496 0 0119.496 22h14.907a3 3 0 003-3z" fill="#fff"/>
  <path d="M41.1 19l-10.697 8.491V10.509L41.1 19z" fill="#fff" stroke="#fff"/>
</svg>
