<svg width="58" height="48" viewBox="0 0 58 48" fill="transparent" xmlns="http://www.w3.org/2000/svg">
<g id="Group 5632">
<g id="Group 5485">
<g id="Group 5482">
<g id="Group 5480">
<g id="Group 5478">
<g id="Group 5477">
<g id="Group 5476">
<g id="Group 5475">
<g id="Group 5468">
<rect id="Rectangle 460" x="7.24805" y="2.3999" width="7.25" height="14.4" rx="1.2" fill="#F19100"/>
</g>
<g id="Group 5469">
<rect id="Rectangle 460_2" x="19.334" width="19.3333" height="14.4" rx="1.2" fill="#F19100"/>
</g>
<rect id="Rectangle 458" y="7.19995" width="58" height="40.8" rx="3.6" fill="#FFD400"/>
</g>
</g>
</g>
</g>
</g>
</g>
<g id="Group 5483">
<g id="Group 5473">
<g id="Intersect" style="mix-blend-mode:multiply">
<path fill-rule="evenodd" clip-rule="evenodd" d="M18.5844 17.9616L18.6202 17.9243C23.6938 12.672 32.0939 12.4889 37.3947 17.5196C37.3947 17.5196 37.3947 17.5197 37.3947 17.5197L19.0286 36.6058C19.0286 36.6058 19.0285 36.6058 19.0285 36.6058C13.7277 31.575 13.5311 23.2331 18.5844 17.9616Z" fill="#F19100"/>
</g>
<g id="Intersect_2" style="mix-blend-mode:multiply">
<path fill-rule="evenodd" clip-rule="evenodd" d="M37.3948 17.5194L19.0287 36.6056C24.3358 41.6422 32.7494 41.4527 37.8211 36.1822C42.8927 30.9117 42.7019 22.5561 37.3948 17.5194Z" fill="#F19100"/>
</g>
</g>
<g id="Group 5472">
<g id="Group 5471">
<path id="Subtract" fill-rule="evenodd" clip-rule="evenodd" d="M34.7735 20.2473C30.9827 16.6504 24.9735 16.786 21.3511 20.5504C17.7286 24.3148 17.8647 30.2826 21.6548 33.8803L34.7735 20.2473Z" fill="white"/>
<path id="Subtract_2" fill-rule="evenodd" clip-rule="evenodd" d="M34.774 20.2475C38.5638 23.8453 38.6998 29.8129 35.0775 33.5772C31.4552 37.3415 25.4461 37.4772 21.6553 33.8805L34.774 20.2475Z" fill="#D5D5D5"/>
</g>
</g>
</g>
</g>
</g>
</svg>
