<svg width="29" height="29" viewBox="0 0 29 29" fill="transparent" xmlns="http://www.w3.org/2000/svg">
<path d="M24.2826 1.45652H4.71739C2.91646 1.45652 1.45652 2.91646 1.45652 4.71739V24.2826C1.45652 26.0835 2.91646 27.5435 4.71739 27.5435H24.2826C26.0835 27.5435 27.5435 26.0835 27.5435 24.2826V4.71739C27.5435 2.91646 26.0835 1.45652 24.2826 1.45652Z" fill="white" stroke="white" stroke-width="1.08696" stroke-miterlimit="10"/>
<path d="M4.71739 2.54348H24.2826C25.4832 2.54348 26.4565 3.51677 26.4565 4.71739V24.2826C26.4565 25.4832 25.4832 26.4565 24.2826 26.4565H4.71739C3.51677 26.4565 2.54348 25.4832 2.54348 24.2826V4.71739C2.54348 3.51677 3.51677 2.54348 4.71739 2.54348Z" fill="white" stroke="#0A93F5" stroke-width="1.08696" stroke-miterlimit="10"/>
<path d="M8.95001 14.3999L12.25 18.7999L19.95 10" stroke="#0A93F5" stroke-width="2.51427" stroke-linecap="round"/>
</svg>
