<svg width="55" height="47" viewBox="0 0 55 47" fill="transparent" xmlns="http://www.w3.org/2000/svg">
<g id="&#230;&#156;&#172;&#227;&#129;&#132;&#227;&#130;&#137;&#227;&#129;&#153;&#227;&#129;&#168;">
<g id="&#227;&#129;&#187;&#227;&#130;&#147;">
<g id="Group">
<g id="Group_2">
<path id="Vector" d="M53.7915 7.96648C50.2425 7.09263 35.9205 4.23948 27.3 12.8726C18.6795 4.22895 4.3575 7.0821 0.8085 7.96648C0.3255 8.08229 0 8.51395 0 9.00877V42.6044C0 43.2993 0.6405 43.8046 1.3125 43.6467C5.0085 42.7939 15.7605 40.9515 23.9295 46.005C24.444 46.3209 25.0425 46.4999 25.6515 46.4999H28.9485C29.5575 46.4999 30.156 46.3314 30.6705 46.005C38.8395 40.9515 49.5915 42.7939 53.2875 43.6467C53.9595 43.8046 54.6 43.2887 54.6 42.6044V9.00877C54.6 8.51395 54.264 8.08229 53.7915 7.96648Z" fill="#0A93F5"/>
<path id="Vector_2" d="M27.3 46.4999V12.8726C18.6795 4.22895 4.3575 7.0821 0.8085 7.96648C0.3255 8.08229 0 8.51395 0 9.00877V42.6044C0 43.2993 0.6405 43.8046 1.3125 43.6467C5.0085 42.7939 15.7605 40.9515 23.9295 46.005C24.444 46.3209 25.0425 46.4999 25.6515 46.4999H27.3Z" fill="#66BFFF"/>
<path id="Vector_3" d="M49.0967 4.35532C45.7262 3.55517 34.2707 1.52322 27.2987 8.51397C20.3267 1.52322 8.88167 3.55517 5.50067 4.35532C4.93367 4.49218 4.53467 4.99754 4.53467 5.57659V36.7928C4.53467 37.593 5.26967 38.1931 6.05717 38.0246C9.72167 37.235 19.2662 35.8664 25.9127 41.0778C26.7212 41.7201 27.8762 41.7201 28.6847 41.0778C35.3312 35.8664 44.8652 37.235 48.5402 38.0246C49.3172 38.1931 50.0627 37.593 50.0627 36.7928V5.57659C50.0627 4.99754 49.6637 4.49218 49.0967 4.35532Z" fill="white"/>
<path id="Vector_4" d="M49.0941 4.35509C48.4431 4.19716 47.4981 4.00765 46.3326 3.82867V36.7926C46.3326 37.0979 46.2276 37.3717 46.0491 37.5822C47.0256 37.7191 47.8761 37.877 48.5271 38.0244C49.3041 38.1929 50.0496 37.5928 50.0496 36.7926V5.57636C50.0496 4.99731 49.6506 4.49195 49.0836 4.35509H49.0941Z" fill="#EBEBEB"/>
<path id="Vector_5" d="M23.584 39.5619C24.3925 39.9935 25.1695 40.4883 25.915 41.0779C26.3245 41.3938 26.8075 41.5517 27.301 41.5517V8.51405C26.167 7.377 24.907 6.47157 23.584 5.76617V39.5619Z" fill="#EBEBEB"/>
</g>
</g>
</g>
<g id="&#232;&#153;&#171;&#231;&#156;&#188;&#233;&#143;&#161;">
<path id="Vector_6" d="M36.8743 27.3053C37.3356 26.844 37.5901 26.23 37.5901 25.5776C37.5901 24.9251 37.3362 24.3112 36.8743 23.8499L19.0155 5.99089C18.6983 5.67361 18.1839 5.67361 17.8672 5.99089L15.5608 8.29737C15.4087 8.44951 15.3231 8.65633 15.3231 8.87182C15.3231 9.08731 15.4087 9.29359 15.5608 9.44628L33.4196 27.3053C33.8961 27.7817 34.5214 28.0199 35.1473 28.0199C35.7731 28.0199 36.3985 27.7817 36.8749 27.3053H36.8743Z" fill="#464B52"/>
<path id="Vector_7" d="M15.5607 8.29734C15.4085 8.44949 15.323 8.65631 15.323 8.8718C15.323 9.08729 15.4085 9.29357 15.5607 9.44625L33.4195 27.3052C33.8959 27.7817 34.5213 28.0199 35.1471 28.0199C35.773 28.0199 36.3983 27.7817 36.8748 27.3052L16.7139 7.1441L15.5607 8.29734Z" fill="#292B2F"/>
<path id="Vector_8" d="M20.4689 21.4968C14.6157 21.4968 9.87084 16.7517 9.87084 10.8984C9.87084 5.04501 14.6157 0.299927 20.4689 0.299927C26.322 0.299927 31.0669 5.04501 31.0669 10.8984C31.0669 16.7517 26.322 21.4968 20.4689 21.4968Z" fill="#66BFFF"/>
<path id="Vector_9" d="M12.9773 3.40771C11.058 5.32707 9.86962 7.97628 9.86962 10.8984C9.86962 16.7425 14.6237 21.4968 20.4677 21.4968C23.3896 21.4968 26.0393 20.3084 27.958 18.389L12.9773 3.40771Z" fill="#0A93F5"/>
<path id="Vector_10" d="M20.4677 18.2348C16.4161 18.2348 13.1316 14.9502 13.1316 10.8985C13.1316 6.84673 16.4161 3.56213 20.4677 3.56213C24.5192 3.56213 27.8037 6.84673 27.8037 10.8985C27.8037 14.9502 24.5192 18.2348 20.4677 18.2348Z" fill="#E1FAFF"/>
<path id="Vector_11" d="M20.4678 18.2348C22.4905 18.2348 24.3242 17.4118 25.6528 16.0837L15.2827 5.7132C13.9541 7.04186 13.1317 8.87567 13.1317 10.8984C13.1317 14.9434 16.4229 18.2348 20.4678 18.2348Z" fill="#C7F5FF"/>
</g>
</g>
</svg>
