<svg width="60" height="45" viewBox="0 0 60 45" fill="transparent" xmlns="http://www.w3.org/2000/svg">
<g id="Group 36">
<path id="Vector" d="M6.986 33.8063C13.783 19.6803 25.186 12.8133 39.732 8.7743C37.632 6.2543 35.532 3.7273 33.432 1.2143C25.046 9.2573 17.913 20.1633 13.881 31.0973C13.377 32.4553 19.39 39.3013 20.174 38.6573C30.527 30.1593 42.462 22.1093 55.398 18.3223C53.298 15.8023 51.198 13.2823 49.098 10.7623C40.803 17.3073 32.704 26.4003 29.239 36.5713C28.763 37.9643 34.818 44.7753 35.539 44.1313C39.193 40.8833 42.896 37.0893 47.733 35.8083C47.481 35.8713 43.61 27.6673 41.433 28.2413C36.596 29.5223 32.893 33.3233 29.239 36.5713C31.339 39.0913 33.439 41.6183 35.539 44.1313C39.004 33.9603 47.11 24.8673 55.405 18.3223C56.084 17.7833 50.547 10.3423 49.105 10.7623C36.169 14.5493 24.241 22.5993 13.881 31.0973C15.981 33.6173 18.081 36.1373 20.174 38.6573C24.213 27.7233 31.339 16.8173 39.732 8.7743C40.488 8.0463 34.797 0.836299 33.432 1.2143C18.886 5.2463 7.483 12.1133 0.686004 26.2463C-0.272996 28.2483 7.07 33.6243 6.986 33.8063Z" fill="white"/>
<path id="Vector_2" d="M39.732 8.7743C25.186 12.8133 13.783 19.6803 6.986 33.8063C7.07 33.6243 -0.272996 28.2483 0.686004 26.2463C7.483 12.1133 18.886 5.2463 33.432 1.2143M39.732 8.7743C37.632 6.2543 35.532 3.7273 33.432 1.2143M39.732 8.7743C31.339 16.8173 24.213 27.7233 20.174 38.6573M39.732 8.7743C40.488 8.0463 34.797 0.836299 33.432 1.2143M33.432 1.2143C25.046 9.2573 17.913 20.1633 13.881 31.0973M13.881 31.0973C13.377 32.4553 19.39 39.3013 20.174 38.6573M13.881 31.0973C24.241 22.5993 36.169 14.5493 49.105 10.7623C50.547 10.3423 56.084 17.7833 55.405 18.3223C47.11 24.8673 39.004 33.9603 35.539 44.1313M13.881 31.0973C15.981 33.6173 18.081 36.1373 20.174 38.6573M20.174 38.6573C30.527 30.1593 42.462 22.1093 55.398 18.3223C53.298 15.8023 51.198 13.2823 49.098 10.7623C40.803 17.3073 32.704 26.4003 29.239 36.5713M29.239 36.5713C28.763 37.9643 34.818 44.7753 35.539 44.1313M29.239 36.5713C32.893 33.3233 36.596 29.5223 41.433 28.2413C43.61 27.6673 47.481 35.8713 47.733 35.8083C42.896 37.0893 39.193 40.8833 35.539 44.1313M29.239 36.5713C31.339 39.0913 33.439 41.6183 35.539 44.1313" stroke="white" stroke-width="0.7" stroke-linecap="round" stroke-linejoin="round"/>
<path id="Vector_3" d="M39.732 8.7743C25.186 12.8133 13.783 19.6803 6.986 33.8063C7.07 33.6243 -0.272996 28.2483 0.686004 26.2463C7.483 12.1133 18.886 5.2463 33.432 1.2143M39.732 8.7743C37.632 6.2543 35.532 3.7273 33.432 1.2143M39.732 8.7743C31.339 16.8173 24.213 27.7233 20.174 38.6573M39.732 8.7743C40.488 8.0463 34.797 0.836299 33.432 1.2143M33.432 1.2143C25.046 9.2573 17.913 20.1633 13.881 31.0973M13.881 31.0973C13.377 32.4553 19.39 39.3013 20.174 38.6573M13.881 31.0973C24.241 22.5993 36.169 14.5493 49.105 10.7623C50.547 10.3423 56.084 17.7833 55.405 18.3223C47.11 24.8673 39.004 33.9603 35.539 44.1313M13.881 31.0973C15.981 33.6173 18.081 36.1373 20.174 38.6573M20.174 38.6573C30.527 30.1593 42.462 22.1093 55.398 18.3223C53.298 15.8023 51.198 13.2823 49.098 10.7623C40.803 17.3073 32.704 26.4003 29.239 36.5713M29.239 36.5713C28.763 37.9643 34.818 44.7753 35.539 44.1313M29.239 36.5713C32.893 33.3233 36.596 29.5223 41.433 28.2413C43.61 27.6673 47.481 35.8713 47.733 35.8083C42.896 37.0893 39.193 40.8833 35.539 44.1313M29.239 36.5713C31.339 39.0913 33.439 41.6183 35.539 44.1313" stroke="white" stroke-width="0.7" stroke-linecap="round" stroke-linejoin="round"/>
<path id="Vector_4" d="M45.1492 34.0515L41.8452 35.5915C41.2362 35.8785 40.9772 36.5995 41.2572 37.2085L42.6712 40.2325L47.0742 38.1815L45.1492 34.0515Z" fill="#E1E1E1"/>
<path id="Vector_5" d="M42.6721 40.2321L44.0861 43.2561C44.3661 43.8651 45.0941 44.1241 45.7031 43.8441L49.0071 42.3041L47.0821 38.1741L42.6791 40.2251L42.6721 40.2321Z" fill="white"/>
<path id="Vector_6" d="M55.0534 29.4313L45.1484 34.0513L47.0734 38.1813L58.0844 33.0503L56.6704 30.0263C56.3904 29.4173 55.6624 29.1583 55.0534 29.4383V29.4313Z" fill="#1930A5"/>
<path id="Vector_7" d="M49.0004 42.3045L58.9054 37.6845C59.5144 37.4045 59.7734 36.6765 59.4934 36.0675L58.0794 33.0435L47.0684 38.1745L48.9934 42.3045H49.0004Z" fill="#003AF7"/>
</g>
</svg>
