<svg width="43" height="40" viewBox="0 0 43 40" fill="transparent" xmlns="http://www.w3.org/2000/svg">
<g id="Group 37">
<path id="Vector" d="M27.3126 36.946H13.9355L15.7485 39.235H27.3126C27.9426 39.235 28.4535 38.724 28.4535 38.094C28.4535 37.464 27.9426 36.953 27.3126 36.953V36.946Z" fill="#E6F0FF"/>
<path id="Vector_2" d="M32.0455 39.228C32.6755 39.228 33.1865 38.717 33.1865 38.087C33.1865 37.457 32.6755 36.946 32.0455 36.946C31.4155 36.946 30.9045 37.457 30.9045 38.087C30.9045 38.717 31.4155 39.228 32.0455 39.228Z" fill="#E6F0FF"/>
<path id="Vector_3" d="M36.7699 39.228C37.3999 39.228 37.9109 38.717 37.9109 38.087C37.9109 37.457 37.3999 36.946 36.7699 36.946C36.1399 36.946 35.6289 37.457 35.6289 38.087C35.6289 38.717 36.1399 39.228 36.7699 39.228Z" fill="#E6F0FF"/>
<path id="Vector_4" d="M7.63622 19.8379L1.53922 25.9349C0.419219 27.0549 0.419219 28.8749 1.53922 30.0019L7.13222 35.5949L15.2662 27.4609L7.64322 19.8379H7.63622Z" fill="#E1E1E1"/>
<path id="Vector_5" d="M25.9347 1.53995L7.63672 19.8379L15.2597 27.461L35.5877 7.13295L29.9947 1.53995C28.8747 0.419951 27.0547 0.419951 25.9277 1.53995H25.9347Z" fill="#1930A5"/>
<path id="Vector_6" d="M22.8828 35.0769L41.1808 16.7789C42.3008 15.6589 42.3008 13.8389 41.1808 12.7119L35.5878 7.1189L15.2598 27.4469L22.8828 35.0699V35.0769Z" fill="#003AF7"/>
<path id="Vector_7" d="M22.882 35.0769L15.259 27.4539L7.125 35.5879L10.289 38.7519C10.597 39.0599 11.01 39.2279 11.444 39.2279H18.059C18.493 39.2279 18.906 39.0529 19.214 38.7519L22.889 35.0769H22.882Z" fill="white"/>
</g>
</svg>
