<svg width="40" height="40" viewBox="0 0 40 40" fill="transparent" xmlns="http://www.w3.org/2000/svg">
<g filter="url(#filter0_d_2827_27717)">
<path fill-rule="evenodd" clip-rule="evenodd" d="M6 7.37931C6 5.51297 7.51297 4 9.37931 4H16.0028C16.8027 4 17.4511 4.64842 17.4511 5.44828C17.4511 6.24814 16.8027 6.89655 16.0028 6.89655H9.37931C9.11269 6.89655 8.89655 7.11269 8.89655 7.37931V14.0028C8.89655 14.8027 8.24814 15.4511 7.44828 15.4511C6.64841 15.4511 6 14.8027 6 14.0028V7.37931Z" fill="white"/>
<path fill-rule="evenodd" clip-rule="evenodd" d="M30.6207 4C32.487 4 34 5.51297 34 7.37931L34 14.0028C34 14.8027 33.3516 15.4511 32.5517 15.4511C31.7519 15.4511 31.1034 14.8027 31.1034 14.0028L31.1034 7.37931C31.1034 7.11269 30.8873 6.89655 30.6207 6.89655L23.9972 6.89655C23.1973 6.89655 22.5489 6.24814 22.5489 5.44828C22.5489 4.64841 23.1973 4 23.9972 4L30.6207 4Z" fill="white"/>
<path fill-rule="evenodd" clip-rule="evenodd" d="M34 28.6204C34 30.4868 32.487 31.9998 30.6207 31.9998L23.9972 31.9998C23.1973 31.9998 22.5489 31.3513 22.5489 30.5515C22.5489 29.7516 23.1973 29.1032 23.9972 29.1032L30.6207 29.1032C30.8873 29.1032 31.1034 28.8871 31.1034 28.6204L31.1035 21.997C31.1035 21.1971 31.7519 20.5487 32.5517 20.5487C33.3516 20.5487 34 21.1971 34 21.997L34 28.6204Z" fill="white"/>
<path fill-rule="evenodd" clip-rule="evenodd" d="M9.37931 31.9998C7.51297 31.9998 6 30.4868 6 28.6204L6 21.997C6 21.1971 6.64842 20.5487 7.44828 20.5487C8.24814 20.5487 8.89655 21.1971 8.89655 21.997L8.89655 28.6204C8.89655 28.8871 9.11269 29.1032 9.37931 29.1032L16.0028 29.1032C16.8027 29.1032 17.4511 29.7516 17.4511 30.5515C17.4511 31.3513 16.8027 31.9998 16.0028 31.9998L9.37931 31.9998Z" fill="white"/>
<g clip-path="url(#clip0_2827_27717)">
<path fill-rule="evenodd" clip-rule="evenodd" d="M27.0388 14.7434L27.0457 11.705C27.0457 11.2953 26.7043 10.9539 26.2946 10.9539L23.2698 10.9471C22.8602 10.9471 22.5188 11.2885 22.5188 11.6981C22.5188 12.1078 22.8602 12.4492 23.2698 12.4492L24.4716 12.4492L20.6752 16.2455C20.3816 16.5391 20.3816 17.0171 20.6752 17.3107C20.9688 17.6043 21.4468 17.6043 21.7404 17.3107L25.5299 13.5212L25.5299 14.7502C25.5299 15.1599 25.8713 15.5013 26.2809 15.5013C26.6906 15.5013 27.032 15.1599 27.032 14.7502L27.0388 14.7434Z" fill="white"/>
</g>
<g clip-path="url(#clip1_2827_27717)">
<path fill-rule="evenodd" clip-rule="evenodd" d="M12.9607 21.2564L12.9538 24.2948C12.9538 24.7045 13.2952 25.0458 13.7049 25.0458L16.7297 25.0527C17.1393 25.0527 17.4807 24.7113 17.4807 24.3016C17.4807 23.8919 17.1393 23.5505 16.7297 23.5505L15.528 23.5505L19.3243 19.7542C19.6179 19.4606 19.6179 18.9827 19.3243 18.6891C19.0307 18.3955 18.5527 18.3955 18.2591 18.6891L14.4696 22.4786V21.2495C14.4696 20.8399 14.1282 20.4985 13.7186 20.4985C13.3089 20.4985 12.9675 20.8399 12.9675 21.2495L12.9607 21.2564Z" fill="white"/>
</g>
</g>
<defs>
<filter id="filter0_d_2827_27717" x="0.482399" y="0.3216" width="39.0352" height="39.035" filterUnits="userSpaceOnUse" color-interpolation-filters="sRGB">
<feFlood flood-opacity="0" result="BackgroundImageFix"/>
<feColorMatrix in="SourceAlpha" type="matrix" values="0 0 0 0 0 0 0 0 0 0 0 0 0 0 0 0 0 0 127 0" result="hardAlpha"/>
<feOffset dy="1.8392"/>
<feGaussianBlur stdDeviation="2.7588"/>
<feComposite in2="hardAlpha" operator="out"/>
<feColorMatrix type="matrix" values="0 0 0 0 0 0 0 0 0 0 0 0 0 0 0 0 0 0 0.7 0"/>
<feBlend mode="normal" in2="BackgroundImageFix" result="effect1_dropShadow_2827_27717"/>
<feBlend mode="normal" in="SourceGraphic" in2="effect1_dropShadow_2827_27717" result="shape"/>
</filter>
<clipPath id="clip0_2827_27717">
<rect width="5.79366" height="8.69049" fill="white" transform="translate(24.7788 9.12427) rotate(45)"/>
</clipPath>
<clipPath id="clip1_2827_27717">
<rect width="5.79366" height="8.69049" fill="white" transform="translate(15.2207 26.8755) rotate(-135)"/>
</clipPath>
</defs>
</svg>
