<svg width="52" height="52" viewBox="0 0 52 52"  fill="transparent" xmlns="http://www.w3.org/2000/svg">
  <path d="M57 30C57 16.193 45.807 5 32 5S7 16.193 7 30s11.193 25 25 25 25-11.193 25-25z" fill="url(#prefix__paint0_linear_3507_4249)" transform="translate(-6 -4)"/>
  <path fill-rule="evenodd" clip-rule="evenodd" d="M39.75 21.76v.03l-2.02 10.1c-.02.06-.03.12-.04.18l-.02.08c-1.22 5.61-6.21 9.81-12.19 9.81-6.89 0-12.48-5.59-12.48-12.48 0-3.14 1.17-6.01 3.08-8.21h-.01l.18-.19c.14-.15.28-.3.43-.45L27.62 9.17C28.35 8.45 29.35 8 30.45 8c2.2 0 3.99 1.78 3.99 3.99 0 .67-.16 1.29-.45 1.84v.02c-.08.16-.18.31-.28.46-.37.48-.59 1.08-.59 1.74a2.88 2.88 0 003.42 2.83l-.11.04a2.5 2.5 0 013.36 2.35c0 .16-.01.31-.04.46v.03zm-10.61 4.92h.44c1.51 0 2.87 1.13 2.95 2.64.08 1.61-1.2 2.94-2.79 2.94h-.6a.86.86 0 00-.86.86v.6c0 1.59-1.33 2.87-2.94 2.79-1.51-.08-2.64-1.44-2.64-2.95v-.44a.86.86 0 00-.86-.86h-.6c-1.59 0-2.87-1.33-2.79-2.94.08-1.51 1.44-2.64 2.95-2.64h.44c.47 0 .86-.38.86-.86v-.6c0-1.59 1.33-2.87 2.94-2.79 1.51.08 2.64 1.44 2.64 2.95v.44c0 .47.38.86.86.86z" fill="#fff"/>
  <path d="M26 1c13.81 0 25 11.19 25 25S39.81 51 26 51 1 39.81 1 26 12.19 1 26 1zm0-1C11.66 0 0 11.66 0 26s11.66 26 26 26 26-11.66 26-26S40.34 0 26 0z" fill="#fff"/>
</svg>
