<svg width="40" height="23" viewBox="0 0 40 23" fill="transparent" xmlns="http://www.w3.org/2000/svg">
<path fill-rule="evenodd" clip-rule="evenodd" d="M1.01995 0H39.28C39.841 0 40.3 0.548733 40.3 1.21936V22.1806C40.3 22.8513 39.841 23.4 39.28 23.4H1.01995C0.458954 23.4 0 22.8513 0 22.1806V1.21936C0 0.548733 0.458954 0 1.01995 0ZM37.5813 2.68312H34.7746C34.2996 2.68312 33.911 3.14767 33.911 3.71547V6.03849C33.911 6.60632 34.2996 7.07087 34.7746 7.07087H37.5813C38.0563 7.07087 38.4449 6.60632 38.4449 6.03849V3.71547C38.4449 3.14767 38.0563 2.68312 37.5813 2.68312ZM31.1701 2.68312H28.3634C27.8884 2.68312 27.4998 3.14767 27.4998 3.71547V6.03849C27.4998 6.60632 27.8884 7.07087 28.3634 7.07087H31.1701C31.6451 7.07087 32.0337 6.60632 32.0337 6.03849V3.71547C32.0337 3.14767 31.6451 2.68312 31.1701 2.68312ZM24.7589 2.68312H21.9522C21.4772 2.68312 21.0886 3.14767 21.0886 3.71547V6.03849C21.0886 6.60632 21.4772 7.07087 21.9522 7.07087H24.7589C25.2339 7.07087 25.6225 6.60632 25.6225 6.03849V3.71547C25.6225 3.14767 25.2339 2.68312 24.7589 2.68312ZM18.3477 2.68312H15.541C15.066 2.68312 14.6774 3.14767 14.6774 3.71547V6.03849C14.6774 6.60632 15.066 7.07087 15.541 7.07087H18.3477C18.8227 7.07087 19.2113 6.60632 19.2113 6.03849V3.71547C19.2113 3.14767 18.8227 2.68312 18.3477 2.68312ZM11.9365 2.68312H9.12976C8.65478 2.68312 8.2662 3.14767 8.2662 3.71547V6.03849C8.2662 6.60632 8.65478 7.07087 9.12976 7.07087H11.9365C12.4115 7.07087 12.8001 6.60632 12.8001 6.03849V3.71547C12.8001 3.14767 12.4115 2.68312 11.9365 2.68312ZM5.5253 2.68312H2.71855C2.24357 2.68312 1.85499 3.14767 1.85499 3.71547V6.03849C1.85499 6.60632 2.24357 7.07087 2.71855 7.07087H5.5253C6.00028 7.07087 6.38886 6.60632 6.38886 6.03849V3.71547C6.38886 3.14767 6.00028 2.68312 5.5253 2.68312ZM37.5812 9.55963H34.7745C34.2995 9.55963 33.9109 10.0242 33.9109 10.592V12.915C33.9109 13.4828 34.2995 13.9474 34.7745 13.9474H37.5812C38.0562 13.9474 38.4448 13.4828 38.4448 12.915V10.592C38.4448 10.0242 38.0562 9.55963 37.5812 9.55963ZM31.17 9.55963H28.3633C27.8883 9.55963 27.4997 10.0242 27.4997 10.592V12.915C27.4997 13.4828 27.8883 13.9474 28.3633 13.9474H31.17C31.645 13.9474 32.0336 13.4828 32.0336 12.915V10.592C32.0336 10.0242 31.645 9.55963 31.17 9.55963ZM24.7588 9.55963H21.952C21.4771 9.55963 21.0885 10.0242 21.0885 10.592V12.915C21.0885 13.4828 21.4771 13.9474 21.952 13.9474H24.7588C25.2338 13.9474 25.6224 13.4828 25.6224 12.915V10.592C25.6224 10.0242 25.2338 9.55963 24.7588 9.55963ZM18.3476 9.55963H15.5409C15.0659 9.55963 14.6773 10.0242 14.6773 10.592V12.915C14.6773 13.4828 15.0659 13.9474 15.5409 13.9474H18.3476C18.8226 13.9474 19.2112 13.4828 19.2112 12.915V10.592C19.2112 10.0242 18.8226 9.55963 18.3476 9.55963ZM11.9364 9.55963H9.12966C8.65468 9.55963 8.26609 10.0242 8.26609 10.592V12.915C8.26609 13.4828 8.65468 13.9474 9.12966 13.9474H11.9364C12.4114 13.9474 12.8 13.4828 12.8 12.915V10.592C12.8 10.0242 12.4114 9.55963 11.9364 9.55963ZM5.52519 9.55963H2.71845C2.24347 9.55963 1.85488 10.0242 1.85488 10.592V12.915C1.85488 13.4828 2.24347 13.9474 2.71845 13.9474H5.52519C6.00017 13.9474 6.38876 13.4828 6.38876 12.915V10.592C6.38876 10.0242 6.00017 9.55963 5.52519 9.55963ZM37.5811 16.3291H34.7744C34.2994 16.3291 33.9108 16.7937 33.9108 17.3615V19.6845C33.9108 20.2523 34.2994 20.7169 34.7744 20.7169H37.5811C38.0561 20.7169 38.4447 20.2523 38.4447 19.6845V17.3615C38.4447 16.7937 38.0561 16.3291 37.5811 16.3291ZM31.1699 16.3291H28.3631C27.8882 16.3291 27.4996 16.7937 27.4996 17.3615V19.6845C27.4996 20.2523 27.8882 20.7169 28.3631 20.7169H31.1699C31.6449 20.7169 32.0335 20.2523 32.0335 19.6845V17.3615C32.0335 16.7937 31.6449 16.3291 31.1699 16.3291ZM9.12958 16.3291C8.65457 16.3291 8.26598 16.7937 8.26598 17.3615V19.6845C8.26598 20.2523 8.65457 20.7168 9.12958 20.7168H24.7587C25.2337 20.7168 25.6223 20.2523 25.6223 19.6845V17.3615C25.6223 16.7937 25.2337 16.3291 24.7587 16.3291C19.549 16.3291 14.3393 16.3291 9.12958 16.3291ZM5.52508 16.3291H2.71834C2.24336 16.3291 1.85478 16.7937 1.85478 17.3615V19.6845C1.85478 20.2523 2.24336 20.7169 2.71834 20.7169H5.52508C6.00006 20.7169 6.38865 20.2523 6.38865 19.6845V17.3615C6.38865 16.7937 6.00006 16.3291 5.52508 16.3291Z" fill="#A6A6A6"/>
</svg>
