<svg xmlns="http://www.w3.org/2000/svg" width="52" height="52" viewBox="0 0 52 52" fill="transparent">
  <g transform="translate(-6 -4)">
    <path d="M57 30C57 16.193 45.807 5 32 5S7 16.193 7 30s11.193 25 25 25 25-11.193 25-25z" fill="url(#prefix__prefix__paint0_linear_3507_4234)"/>
    <path d="M32 5c13.81 0 25 11.19 25 25S45.81 55 32 55 7 43.81 7 30 18.19 5 32 5zm0-1C17.66 4 6 15.66 6 30s11.66 26 26 26 26-11.66 26-26S46.34 4 32 4z" fill="#fff"/>
    <path d="M24 39v4a2 2 0 002 2h16a2 2 0 002-2V17a2 2 0 00-2-2H26a2 2 0 00-2 2v4" stroke="#fff" stroke-width="3" stroke-linejoin="round"/>
    <rect width="18" height="6" rx=".5" transform="matrix(-1 0 0 1 36 27)" fill="#fff"/>
    <path d="M12.481 29.611a.5.5 0 000 .778l6.205 5.015a.5.5 0 00.814-.389v-10.03a.5.5 0 00-.814-.389l-6.205 5.015z" fill="#fff"/>
  </g>
</svg>
