<svg width="43" height="43" viewBox="0 0 43 43" fill="transparent" xmlns="http://www.w3.org/2000/svg">
<g clip-path="url(#clip0_2276_109769)">
<path d="M11.3145 21.9204L21.2139 31.8199L16.9713 36.0625L7.07181 26.1631L11.3145 21.9204Z" fill="#FFD2BE"/>
<path d="M6.05149 37.5495C5.35597 37.6843 4.74466 37.0731 4.8794 36.3776L6.76425 26.6472C6.91667 25.8604 7.88641 25.5636 8.45311 26.1303L16.2971 33.9743C16.8638 34.541 16.5671 35.5106 15.7804 35.6631L6.05149 37.5495Z" fill="#FFD2BE"/>
</g>
<g clip-path="url(#clip1_2276_109769)">
<path d="M6.0372 37.5585C5.34482 37.6895 4.73771 37.0825 4.86864 36.3901L6.7184 26.6082C6.86769 25.8187 7.83996 25.5187 8.40809 26.0869L16.3388 34.0176C16.9069 34.5856 16.607 35.5578 15.8177 35.7072L6.0372 37.5585Z" fill="#356287"/>
</g>
<path d="M30.4059 2.82843C31.968 1.26633 34.5007 1.26633 36.0628 2.82843L39.5983 6.36396C41.1604 7.92606 41.1604 10.4587 39.5983 12.0208L19.0922 32.5269L9.89985 23.3345L30.4059 2.82843Z" fill="#005AFF"/>
<rect x="30.4062" y="2.82837" width="13" height="7" transform="rotate(45 30.4062 2.82837)" fill="#E6E6E6"/>
<path fill-rule="evenodd" clip-rule="evenodd" d="M17.6096 34.0102L19.093 32.5268L9.90088 23.3347L8.4414 24.7945L8.41877 24.8171C7.91908 25.3474 8.13232 26.1606 8.81213 26.2633L12.2965 26.7828L12.1532 29.4467C12.1272 29.9301 12.5032 30.3061 12.9864 30.2801L15.6498 30.1369L16.1691 33.622C16.2706 34.2945 17.088 34.5094 17.6096 34.0102Z" fill="#005AFF"/>
<g clip-path="url(#clip2_2276_109769)">
<g clip-path="url(#clip3_2276_109769)">
<path d="M11.3145 21.9204L21.2139 31.8199L16.9713 36.0625L7.07181 26.1631L11.3145 21.9204Z" fill="#FFE6D7"/>
<path d="M6.05149 37.5495C5.35597 37.6843 4.74466 37.0731 4.8794 36.3776L6.76425 26.6472C6.91667 25.8604 7.88641 25.5636 8.45311 26.1303L16.2971 33.9743C16.8638 34.541 16.5671 35.5106 15.7804 35.6631L6.05149 37.5495Z" fill="#FFE6D7"/>
</g>
<g clip-path="url(#clip4_2276_109769)">
<path d="M6.0372 37.5585C5.34482 37.6895 4.73771 37.0825 4.86864 36.3901L6.7184 26.6082C6.86769 25.8187 7.83996 25.5187 8.40809 26.0869L16.3388 34.0176C16.9069 34.5856 16.607 35.5578 15.8177 35.7072L6.0372 37.5585Z" fill="#2C5170"/>
</g>
<path d="M30.4059 2.82843C31.968 1.26633 34.5007 1.26633 36.0628 2.82843L39.5983 6.36396C41.1604 7.92606 41.1604 10.4587 39.5983 12.0208L19.0922 32.5269L9.89985 23.3345L30.4059 2.82843Z" fill="#337BFF"/>
<rect x="30.4062" y="2.82837" width="13" height="7" transform="rotate(45 30.4062 2.82837)" fill="#F2F2F2"/>
<path fill-rule="evenodd" clip-rule="evenodd" d="M17.6096 34.0102L19.093 32.5268L9.90088 23.3347L8.4414 24.7945L8.41877 24.8171C7.91908 25.3474 8.13232 26.1606 8.81213 26.2633L12.2965 26.7828L12.1532 29.4467C12.1272 29.9301 12.5032 30.3061 12.9864 30.2801L15.6498 30.1369L16.1691 33.622C16.2706 34.2945 17.088 34.5094 17.6096 34.0102Z" fill="#337BFF"/>
</g>
<defs>
<clipPath id="clip0_2276_109769">
<rect width="13" height="16" fill="white" transform="translate(11.3145 21.9204) rotate(45)"/>
</clipPath>
<clipPath id="clip1_2276_109769">
<rect width="7" height="5" fill="white" transform="translate(5.65625 31.8198) rotate(45)"/>
</clipPath>
<clipPath id="clip2_2276_109769">
<rect width="6.5" height="47" fill="white" transform="translate(37.8301 4.59619) rotate(45)"/>
</clipPath>
<clipPath id="clip3_2276_109769">
<rect width="13" height="16" fill="white" transform="translate(11.3145 21.9204) rotate(45)"/>
</clipPath>
<clipPath id="clip4_2276_109769">
<rect width="7" height="5" fill="white" transform="translate(5.65625 31.8198) rotate(45)"/>
</clipPath>
</defs>
</svg>
