<svg width="27" height="27" viewBox="0 0 27 27" fill="transparent" xmlns="http://www.w3.org/2000/svg">
<path d="M3.69855 16.5225L1.95892 18.2625C1.87644 18.345 1.82395 18.45 1.79396 18.5625L0.0243388 26.25C-0.0806387 26.6925 0.316775 27.09 0.75918 26.985L8.44502 25.215C8.5575 25.1925 8.66248 25.1325 8.74496 25.05L10.3346 23.46L3.70605 16.5225H3.69855Z" fill="#FFD2BE"/>
<path d="M8.43736 25.2073C8.54984 25.1848 8.65482 25.1248 8.7373 25.0423L10.327 23.4523L7.01267 19.9873L0.181641 26.8198C0.32411 26.9623 0.534065 27.0373 0.751518 26.9848L8.43736 25.2148V25.2073Z" fill="#FFE6D7"/>
<path d="M17.3837 2.83485L2.54437 17.6773C2.54437 17.6773 2.53687 17.6848 2.52937 17.6923C2.19944 18.0448 2.37941 18.6223 2.8593 18.7198L5.31877 19.2148V21.0748C5.31877 21.4123 5.59621 21.6898 5.93364 21.6898H7.79324L8.28813 24.1498C8.38561 24.6298 8.97798 24.8098 9.32291 24.4648L24.1622 9.62235C24.4022 9.38235 24.4022 8.99235 24.1622 8.75235L18.2535 2.84235C18.1335 2.72235 17.976 2.66235 17.8111 2.66235C17.6536 2.66235 17.4962 2.72985 17.3837 2.84235V2.83485Z" fill="#FFD332"/>
<path d="M0.946814 22.2073L0.0170145 26.2498C-0.0879629 26.6923 0.309451 27.0898 0.751856 26.9848C2.08657 26.6773 3.42128 26.3698 4.75599 26.0623L0.946814 22.2073Z" fill="#333333"/>
<path d="M21.2067 5.78979L5.49756 21.5023C5.61003 21.6148 5.7675 21.6823 5.93246 21.6823H7.79206L8.28696 24.1423C8.35444 24.4723 8.67687 24.6898 9.0143 24.6223C9.13427 24.5998 9.23925 24.5398 9.32923 24.4573L24.1685 9.61479C24.4085 9.37479 24.4085 8.98479 24.1685 8.74479L21.2142 5.78979H21.2067Z" fill="#FFEE32"/>
<path d="M21.5144 0C20.7121 0 19.9173 0.3075 19.3099 0.914999L14.6909 5.53499L21.4695 12.315L26.0885 7.69499C27.3032 6.47999 27.3032 4.4925 26.0885 3.2775L23.7265 0.914999C23.1191 0.3075 22.3168 0 21.5219 0H21.5144Z" fill="#FFD332"/>
<path d="M24.9041 2.09246L18.0806 8.91745L21.4698 12.3075L26.0888 7.68746C27.3036 6.47246 27.3036 4.48496 26.0888 3.26996L24.9041 2.08496V2.09246Z" fill="#FFEE32"/>
<path d="M2.85856 24.1423L0.181641 26.8198C0.32411 26.9623 0.534065 27.0373 0.751518 26.9848C2.08623 26.6773 3.42094 26.3698 4.75566 26.0623L2.85856 24.1423Z" fill="#666666"/>
<path d="M19.2204 0.997559C17.9982 2.22006 16.7759 3.44256 15.5537 4.66506L22.3322 11.445C23.5545 10.2226 24.7767 9.00005 25.999 7.77755L19.2204 0.997559Z" fill="#333333"/>
<path d="M22.6101 4.38745L18.9434 8.05495L22.3326 11.4449C23.5549 10.2224 24.7771 8.99995 25.9993 7.77745L22.6101 4.38745Z" fill="#666666"/>
</svg>
