<svg width="50" height="50" viewBox="0 0 50 50" fill="transparent" xmlns="http://www.w3.org/2000/svg">
<g transform="translate(-54 0)">
<circle cx="79" cy="25" r="23.5" transform="rotate(-180 79 25)" fill="#FFCABF" stroke="white" stroke-width="3"/>
<path d="M78.4473 12.0622L64.5682 15.3368L79.0002 18.8291L93.3592 15.4058L79.553 12.0666C79.1887 11.9782 78.8116 11.9782 78.4473 12.0644V12.0622Z" fill="#F94420"/>
<path d="M78.9998 18.8119V37.9979C78.2241 37.9979 77.7012 37.8276 76.3705 37.3512L64.4928 33.1346C64.1993 33.0333 64 32.725 64 32.3758V16.0569C64 15.5136 64.3879 15.2959 64.75 15.3821C65.1121 15.4684 78.9998 18.8141 78.9998 18.8141V18.8119Z" fill="#C42100"/>
<path d="M93.0165 15.4382C92.59 15.5481 79.0002 18.814 79.0002 18.814V38C79.6109 38 80.0138 37.8793 81.2974 37.4525L93.4322 33.1626C93.7686 33.0462 94 32.6926 94 32.2917V16.2228C94 15.74 93.61 15.2873 93.0165 15.4382Z" fill="#E72700"/>
<path d="M82.6727 23.7356C82.6727 23.1492 82.8527 22.537 83.2127 21.9011C83.5727 21.2694 84.0999 20.7305 84.7941 20.2864C85.4884 19.8466 86.2984 19.5944 87.2219 19.5254C88.0812 19.4608 88.8376 19.5599 89.4912 19.8186C90.1448 20.073 90.6462 20.4438 90.9955 20.9353C91.3447 21.4225 91.514 21.9679 91.5055 22.5758C91.4969 23.0544 91.3897 23.4877 91.1819 23.8735C90.974 24.2616 90.7276 24.6065 90.4469 24.9083C90.164 25.2123 89.6605 25.7318 88.9319 26.4712C88.7305 26.6803 88.5698 26.8635 88.4498 27.0188C88.3276 27.174 88.2376 27.3141 88.1776 27.437C88.1176 27.5598 88.0726 27.6806 88.0384 27.8013C88.0062 27.9199 87.9548 28.129 87.8884 28.4264C87.7727 29.0559 87.4234 29.4224 86.8405 29.5259C86.5384 29.5798 86.2834 29.5259 86.0777 29.3599C85.872 29.1939 85.7691 28.9093 85.7713 28.5084C85.7734 28.0061 85.8527 27.5577 86.007 27.1675C86.1612 26.7773 86.3648 26.4259 86.6198 26.1133C86.8727 25.8029 87.2155 25.4278 87.6484 24.9945C88.0277 24.6173 88.3019 24.3349 88.4691 24.1495C88.6384 23.9619 88.7819 23.7614 88.8976 23.5437C89.0155 23.3281 89.0733 23.1018 89.0776 22.8647C89.0819 22.4012 88.9126 22.0304 88.5634 21.7458C88.2162 21.4591 87.7641 21.3427 87.2091 21.3945C86.5598 21.4548 86.0798 21.6661 85.7713 22.0282C85.4627 22.3926 85.2013 22.9099 84.987 23.5847C84.7834 24.2918 84.4041 24.6798 83.847 24.7488C83.517 24.7897 83.2406 24.7035 83.0134 24.4879C82.7863 24.2724 82.6749 24.0201 82.6749 23.7377L82.6727 23.7356ZM86.9112 32.9664C86.5577 33.044 86.2512 32.9923 85.9877 32.8134C85.7263 32.6323 85.5955 32.3305 85.5977 31.9036C85.5977 31.5264 85.7284 31.1836 85.9855 30.8775C86.2427 30.5714 86.5577 30.3838 86.9305 30.3149C87.3034 30.2459 87.6034 30.3149 87.8519 30.5175C88.0984 30.7201 88.2205 31.0047 88.2184 31.3733C88.2141 31.7808 88.0812 32.13 87.8177 32.4189C87.5541 32.7099 87.2519 32.8931 86.9112 32.9664Z" fill="white"/>
</g>
 </svg>
