<svg width="67" height="42" viewBox="0 0 67 42" fill="transparent" xmlns="http://www.w3.org/2000/svg">
<g id="Group 10760">
<g id="Group 10719">
<circle id="Ellipse 12" cx="5" cy="28" r="5" fill="#F7C9DD"/>
<circle id="Ellipse 13" cx="62" cy="28" r="5" fill="#F7C9DD"/>
</g>
<g id="&#231;&#155;&#174;">
<g id="&#229;&#183;&#166;&#231;&#155;&#174;">
<circle id="Ellipse 7" cx="19" cy="11" r="11" transform="rotate(90 19 11)" fill="white"/>
<path id="Line 463" d="M12 12C12 12 14.3333 15.5 19 15.5C23.6667 15.5 26 12 26 12" stroke="#333333" stroke-width="3" stroke-linecap="round"/>
</g>
<g id="&#229;&#143;&#179;&#231;&#155;&#174;">
<circle id="Ellipse 7_2" cx="48" cy="11" r="11" transform="rotate(90 48 11)" fill="white"/>
<path id="Line 462" d="M41 12C41 12 43.3333 15.5 48 15.5C52.6667 15.5 55 12 55 12" stroke="#333333" stroke-width="3" stroke-linecap="round"/>
</g>
<path id="Line 461" d="M22 35C22 35 25.7801 39.6201 33.3402 39.6201C40.9004 39.6201 44.6805 35 44.6805 35" stroke="white" stroke-width="3" stroke-linecap="round"/>
</g>
</g>
</svg>
