<svg width="69" height="44" viewBox="0 0 69 44" fill="transparent" xmlns="http://www.w3.org/2000/svg">
<g id="Group 10761">
<circle id="Ellipse 12" cx="5" cy="28" r="5" fill="#F7C9DD"/>
<circle id="Ellipse 13" cx="64" cy="28" r="5" fill="#F7C9DD"/>
<g id="&#231;&#155;&#174;">
<g id="&#229;&#183;&#166;&#231;&#155;&#174;">
<circle id="Ellipse 7" cx="19" cy="11" r="11" transform="rotate(90 19 11)" fill="white"/>
<circle id="Ellipse 8" cx="19" cy="11" r="8" transform="rotate(90 19 11)" fill="#333333"/>
<circle id="Ellipse 9" cx="19" cy="11" r="2" transform="rotate(90 19 11)" fill="white"/>
</g>
<g id="&#229;&#143;&#179;&#231;&#155;&#174;">
<circle id="Ellipse 7_2" cx="49" cy="11" r="11" transform="rotate(90 49 11)" fill="white"/>
<circle id="Ellipse 8_2" cx="49" cy="11" r="8" transform="rotate(90 49 11)" fill="#333333"/>
<circle id="Ellipse 9_2" cx="49" cy="11" r="2" transform="rotate(90 49 11)" fill="white"/>
</g>
</g>
<path id="Vector" d="M25 30C29.32 30 38.68 30 43 30C43 35.6 40.2373 42.0057 34 42C27.7627 41.9943 25 35.6 25 30Z" fill="#E65C7E" stroke="white" stroke-width="3" stroke-linecap="round" stroke-linejoin="round"/>
</g>
</svg>
