<svg width="70" height="46" viewBox="0 0 70 46" fill="transparent" xmlns="http://www.w3.org/2000/svg">
<g id="Group 10768">
<path id="Ellipse 15" d="M42.5 36.5C42.5 40.9957 39.0668 44.5 35 44.5C30.9332 44.5 27.5 40.9957 27.5 36.5C27.5 32.0043 30.9332 28.5 35 28.5C39.0668 28.5 42.5 32.0043 42.5 36.5Z" fill="#E65C7E" stroke="white" stroke-width="3"/>
<g id="&#231;&#155;&#174;">
<g id="&#229;&#183;&#166;&#231;&#155;&#174;">
<circle id="Ellipse 7" cx="20" cy="11" r="11" transform="rotate(90 20 11)" fill="white"/>
<circle id="Ellipse 8" cx="20" cy="11" r="8" transform="rotate(90 20 11)" fill="#333333"/>
<circle id="Ellipse 9" cx="17" cy="10" r="2" transform="rotate(90 17 10)" fill="white"/>
</g>
<g id="&#229;&#143;&#179;&#231;&#155;&#174;">
<circle id="Ellipse 7_2" cx="50" cy="11" r="11" transform="rotate(90 50 11)" fill="white"/>
<circle id="Ellipse 8_2" cx="50" cy="11" r="8" transform="rotate(90 50 11)" fill="#333333"/>
<circle id="Ellipse 9_2" cx="47" cy="10" r="2" transform="rotate(90 47 10)" fill="white"/>
</g>
</g>
<circle id="Ellipse 12" cx="5" cy="28" r="5" fill="#F7C9DD"/>
<circle id="Ellipse 13" cx="65" cy="28" r="5" fill="#F7C9DD"/>
</g>
</svg>
