<svg xmlns="http://www.w3.org/2000/svg" width="30" height="30" viewBox="0 0 30 30" fill="transparent">
  <path d="M14.0554 2.71739C14.3667 1.82183 15.6333 1.82183 15.9446 2.71739L18.2982 9.48861C18.4356 9.88368 18.8043 10.1516 19.2224 10.1601L26.3896 10.3061C27.3375 10.3254 27.7289 11.53 26.9733 12.1028L21.2609 16.4337C20.9276 16.6864 20.7867 17.1198 20.9078 17.5201L22.9837 24.3816C23.2583 25.2891 22.2336 26.0336 21.4554 25.492L15.5712 21.3975C15.2279 21.1586 14.7721 21.1586 14.4288 21.3975L8.54463 25.492C7.76639 26.0336 6.74174 25.2891 7.01629 24.3816L9.09216 17.5201C9.21327 17.1198 9.07245 16.6864 8.73915 16.4337L3.02666 12.1028C2.27112 11.53 2.6625 10.3254 3.61043 10.3061L10.7776 10.1601C11.1957 10.1516 11.5644 9.88368 11.7018 9.48861L14.0554 2.71739Z" />
</svg>
