<svg width="58" height="58" viewBox="0 0 58 58" fill="transparent" xmlns="http://www.w3.org/2000/svg">
<g id="Group 10853" transform="translate(-5.75 -4)">
<g id="Rectangle 475" filter="url(#filter0_d_3550_4679)">
<rect x="63.5" y="61.5" width="57" height="57" rx="15.5" transform="rotate(-180 63.5 61.5)" stroke="white"/>
</g>
<g id="Group 5804">
<path id="Vector" d="M25.533 22.1275L23.2317 19.8245C22.6978 19.2903 21.9877 18.9962 21.232 18.9962C20.4763 18.9962 19.7662 19.2904 19.2325 19.8245L17.5643 21.494C16.4662 22.5928 16.4662 24.3807 17.5643 25.4795L19.8705 27.7873C20.096 28.013 20.3918 28.1258 20.6878 28.1258C20.9829 28.1258 21.2781 28.0135 21.5035 27.789C21.9549 27.3391 25.0806 24.2074 25.5314 23.7582C25.9827 23.3084 25.9835 22.5783 25.533 22.1275Z" fill="#3E77EB"/>
<path id="Vector_2" d="M35 13.5186C33.9916 13.5186 33.1741 14.1474 33.1741 14.9231V19.4177C33.1741 20.1934 33.9916 20.8223 35 20.8223C36.0084 20.8223 36.8259 20.1934 36.8259 19.4177V14.9231C36.8259 14.1474 36.0084 13.5186 35 13.5186Z" fill="#3E77EB"/>
<g id="Group 5801">
<path id="Vector_3" d="M37.5985 13.5186H32.4016C31.8198 13.5186 31.3482 13.9273 31.3482 14.4315C31.3482 14.9357 31.8198 15.3445 32.4016 15.3445H37.5985C38.1802 15.3445 38.6519 14.9357 38.6519 14.4315C38.6519 13.9273 38.1802 13.5186 37.5985 13.5186Z" fill="#0A93F5"/>
<path id="Vector_4" d="M35 13.5186H32.4016C31.8198 13.5186 31.3482 13.9273 31.3482 14.4315C31.3482 14.9357 31.8198 15.3445 32.4016 15.3445H35V13.5186Z" fill="#4FB4DC"/>
</g>
<path id="Vector_5" d="M47.9121 22.5192C44.4633 19.0699 39.8777 17.1703 35 17.1703C30.1223 17.1703 25.5366 19.0699 22.0879 22.5192C18.6397 25.9678 16.7407 30.5528 16.7407 35.4295C16.7407 40.3063 18.6397 44.8913 22.0879 48.3399C25.5366 51.7892 30.1223 53.6888 35 53.6888C39.8777 53.6888 44.4633 51.7892 47.9121 48.3399C51.3603 44.8913 53.2593 40.3063 53.2593 35.4295C53.2593 30.5528 51.3603 25.9678 47.9121 22.5192Z" fill="#0A93F5"/>
<path id="Vector_6" d="M35 17.1703C30.1223 17.1703 25.5366 19.0699 22.0879 22.5192C18.6397 25.9678 16.7407 30.5528 16.7407 35.4295C16.7407 40.3063 18.6397 44.8913 22.0879 48.3399C25.5366 51.7892 30.1223 53.6888 35 53.6888V17.1703Z" fill="#4FB4DC"/>
<g id="Group 5798">
<g id="Group 5799">
<g id="Group 5806">
<path id="Vector_7" d="M35 20.8223C26.9454 20.8223 20.3926 27.3751 20.3926 35.4296C20.3926 43.4842 26.9454 50.0371 35 50.0371C43.0545 50.0371 49.6074 43.4842 49.6074 35.4296C49.6074 27.3751 43.0545 20.8223 35 20.8223Z" fill="#CCEAFF"/>
<path id="Vector_8" d="M35 20.8223C26.9454 20.8223 20.3926 27.3751 20.3926 35.4296C20.3926 43.4842 26.9454 50.0371 35 50.0371V20.8223Z" fill="white"/>
</g>
</g>
</g>
<g id="Group">
<path id="Vector_9" d="M35 24.4741C36.0084 24.4741 36.8259 23.8195 36.8259 23.0121V20.8866C36.224 20.8449 35.6152 20.8223 35 20.8223C34.3848 20.8223 33.776 20.8449 33.1741 20.8866V23.0121C33.1741 23.8195 33.9916 24.4741 35 24.4741Z" fill="#3E77EB"/>
<path id="Vector_10" d="M35 46.3851C33.9916 46.3851 33.1741 47.0397 33.1741 47.8471V49.9727C33.776 50.0144 34.3848 50.037 35 50.037C35.6152 50.037 36.224 50.0144 36.8259 49.9727V47.8471C36.8259 47.0397 36.0084 46.3851 35 46.3851Z" fill="#3E77EB"/>
<path id="Vector_11" d="M49.5427 33.6038H47.4304C46.6158 33.6038 45.9553 34.4213 45.9553 35.4297C45.9553 36.4381 46.6158 37.2556 47.4304 37.2556H49.5427C49.5846 36.6537 49.6072 36.0449 49.6072 35.4297C49.6072 34.8145 49.5846 34.2057 49.5427 33.6038Z" fill="#3E77EB"/>
<path id="Vector_12" d="M24.0444 35.4297C24.0444 34.4213 23.384 33.6038 22.5694 33.6038H20.457C20.4152 34.2057 20.3925 34.8145 20.3925 35.4297C20.3925 36.0449 20.4152 36.6537 20.457 37.2556H22.5694C23.384 37.2556 24.0444 36.4381 24.0444 35.4297Z" fill="#3E77EB"/>
<path id="Vector_13" d="M37.4099 37.0079H35.6579V32.8146C35.6579 32.242 35.1018 31.7778 34.416 31.7778C33.7301 31.7778 33.1741 32.242 33.1741 32.8146V38.0447C33.1741 38.6173 33.7301 39.0815 34.416 39.0815H37.4099C38.0958 39.0815 38.6518 38.6173 38.6518 38.0447C38.6518 37.4721 38.0958 37.0079 37.4099 37.0079Z" fill="#3E77EB"/>
</g>
</g>
</g>
</svg>
