<svg width="71" height="61" viewBox="0 0 71 61" fill="transparent" xmlns="http://www.w3.org/2000/svg">
<g id="toi_box">
<path id="Vector" d="M34.2102 0.144571L1.78174 7.74955L35.5019 15.8602L69.0518 7.90976L36.7936 0.154584C35.9425 -0.0506857 35.0613 -0.0506857 34.2102 0.149577V0.144571Z" fill="#F94420"/>
<path id="Vector_2" d="M35.501 15.8202V60.3787C33.6886 60.3787 32.467 59.9831 29.3578 58.8767L1.60564 49.0838C0.919725 48.8485 0.454102 48.1326 0.454102 47.3215V9.42178C0.454102 8.16012 1.36032 7.65446 2.20645 7.85472C3.05258 8.05499 35.501 15.8252 35.501 15.8252V15.8202Z" fill="#C42100"/>
<path id="Vector_3" d="M68.2508 7.98484C67.2545 8.24017 35.502 15.8251 35.502 15.8251V60.3836C36.9289 60.3836 37.8701 60.1032 40.8691 59.1119L69.2221 49.1489C70.0082 48.8785 70.5489 48.0574 70.5489 47.1262V9.80723C70.5489 8.68576 69.6377 7.63438 68.2508 7.98484Z" fill="#E72700"/>
<path id="Vector_4" d="M44.083 27.2552C44.083 25.8935 44.5036 24.4716 45.3447 22.9946C46.1858 21.5277 47.4175 20.2761 49.0396 19.2447C50.6618 18.2234 52.5544 17.6376 54.7122 17.4774C56.7199 17.3272 58.4873 17.5575 60.0143 18.1583C61.5414 18.7491 62.713 19.6102 63.5291 20.7517C64.3452 21.8832 64.7407 23.1499 64.7207 24.5617C64.7006 25.6732 64.4503 26.6795 63.9646 27.5757C63.479 28.4768 62.9032 29.2779 62.2473 29.9788C61.5865 30.6847 60.4099 31.8913 58.7076 33.6086C58.237 34.0942 57.8615 34.5198 57.5811 34.8802C57.2957 35.2407 57.0854 35.5661 56.9452 35.8515C56.8051 36.1369 56.6999 36.4173 56.6198 36.6976C56.5447 36.973 56.4245 37.4586 56.2693 38.1495C55.999 39.6115 55.1829 40.4626 53.8211 40.7029C53.1151 40.8281 52.5193 40.7029 52.0387 40.3174C51.558 39.9319 51.3177 39.271 51.3227 38.3398C51.3277 37.1733 51.513 36.1319 51.8734 35.2257C52.2339 34.3195 52.7096 33.5034 53.3054 32.7775C53.8962 32.0565 54.6972 31.1854 55.7086 30.1791C56.5948 29.3029 57.2356 28.6471 57.6262 28.2165C58.0217 27.7809 58.3571 27.3153 58.6275 26.8097C58.9029 26.309 59.038 25.7833 59.0481 25.2326C59.0581 24.1562 58.6625 23.295 57.8464 22.6342C57.0354 21.9683 55.9789 21.6979 54.6822 21.8181C53.1652 21.9583 52.0437 22.4489 51.3227 23.29C50.6017 24.1361 49.9909 25.3377 49.4903 26.9048C49.0146 28.5469 48.1284 29.4481 46.8267 29.6083C46.0557 29.7035 45.4098 29.5032 44.8791 29.0025C44.3484 28.5019 44.088 27.9161 44.088 27.2602L44.083 27.2552ZM53.9863 48.6934C53.1602 48.8736 52.4442 48.7535 51.8284 48.3379C51.2176 47.9174 50.9122 47.2164 50.9172 46.2251C50.9172 45.349 51.2226 44.5529 51.8234 43.842C52.4242 43.1311 53.1602 42.6955 54.0313 42.5353C54.9025 42.3751 55.6034 42.5353 56.1842 43.0059C56.76 43.4765 57.0454 44.1374 57.0404 44.9935C57.0303 45.9398 56.7199 46.7508 56.1041 47.4217C55.4883 48.0976 54.7823 48.5232 53.9863 48.6934Z" fill="white"/>
</g>
</svg>
